<svg
	xmlns:dc="http://purl.org/dc/elements/1.1/"
	xmlns:cc="http://creativecommons.org/ns#"
	xmlns:rdf="http://www.w3.org/1999/02/22-rdf-syntax-ns#"
	xmlns:svg="http://www.w3.org/2000/svg"
	xmlns="http://www.w3.org/2000/svg"
	xmlns:xlink="http://www.w3.org/1999/xlink" viewBox="0 0 1000 669.33331" xml:space="preserve" id="svg2" version="1.1">
	<metadata id="metadata8">
		<rdf:RDF>
			<cc:Work rdf:about="">
				<dc:format>image/svg+xml</dc:format>
				<dc:type rdf:resource="http://purl.org/dc/dcmitype/StillImage"/>
			</cc:Work>
		</rdf:RDF>
	</metadata>
	<g transform="matrix(1.3333333,0,0,-1.3333333,0,669.33333)" id="g10">
		<g transform="scale(0.1)" id="g12">
			<path id="path136" style="fill:#ffffff;fill-opacity:1;fill-rule:nonzero;stroke:none" d="M 6508.17,558.949 H 991.824 c -84.953,0 -153.828,68.871 -153.828,153.832 V 4327.64 c 0,84.95 68.875,153.82 153.828,153.82 H 6508.17 c 84.96,0 153.83,-68.87 153.83,-153.82 V 712.781 c 0,-84.961 -68.87,-153.832 -153.83,-153.832"/>
			<path id="path220" style="fill:#dcedf9;fill-opacity:1;fill-rule:nonzero;stroke:none" d="m 3474.68,1675.15 h -352.23 c -31.15,0 -56.4,25.25 -56.4,56.4 v 465.67 c 0,31.15 25.25,56.4 56.4,56.4 h 352.23 v -578.47"/>
			<path id="path222" style="fill:#dcedf9;fill-opacity:1;fill-rule:nonzero;stroke:none" d="m 6225.01,2765.85 h -324.66 v 340.33 c 0,31.15 -25.25,56.4 -56.4,56.4 h -144.91 v 125.33 c 0,31.15 25.26,56.41 56.41,56.41 h 469.56 c 31.15,0 56.4,-25.26 56.4,-56.41 v -465.66 c 0,-31.15 -25.25,-56.4 -56.4,-56.4"/>
			<path id="path224" style="fill:#dcedf9;fill-opacity:1;fill-rule:nonzero;stroke:none" d="M 5668.67,1265.54 H 5199.1 c -31.15,0 -56.39,25.25 -56.39,56.4 v 224.86 h 582.36 v -224.86 c 0,-31.15 -25.25,-56.4 -56.4,-56.4"/>
			<path id="path226" style="fill:#dcedf9;fill-opacity:1;fill-rule:nonzero;stroke:none" d="M 4202.17,3162.58 H 3619.8 v 286.51 c 0,31.15 25.25,56.4 56.4,56.4 h 469.56 c 31.15,0 56.41,-25.25 56.41,-56.4 v -286.51"/>
			<path id="path228" style="fill:#325185;fill-opacity:1;fill-rule:nonzero;stroke:none" d="M 5843.95,1546.8 H 3531.08 c -31.15,0 -56.4,25.25 -56.4,56.4 v 1502.98 c 0,31.15 25.25,56.4 56.4,56.4 h 2312.87 c 31.15,0 56.4,-25.25 56.4,-56.4 V 1603.2 c 0,-31.15 -25.25,-56.4 -56.4,-56.4"/>
			<path id="path230" style="fill:#f36665;fill-opacity:1;fill-rule:nonzero;stroke:none" d="m 5819.97,3065.33 c 0,-12.06 -9.78,-21.85 -21.85,-21.85 -12.08,0 -21.86,9.79 -21.86,21.85 0,12.07 9.78,21.86 21.86,21.86 12.07,0 21.85,-9.79 21.85,-21.86"/>
			<path id="path232" style="fill:#f9ac6f;fill-opacity:1;fill-rule:nonzero;stroke:none" d="m 5725.22,3065.33 c 0,-12.06 -9.78,-21.85 -21.85,-21.85 -12.06,0 -21.85,9.79 -21.85,21.85 0,12.07 9.79,21.86 21.85,21.86 12.07,0 21.85,-9.79 21.85,-21.86"/>
			<path id="path234" style="fill:#5ca0dc;fill-opacity:1;fill-rule:nonzero;stroke:none" d="m 5630.48,3065.33 c 0,-12.06 -9.78,-21.85 -21.85,-21.85 -12.07,0 -21.85,9.79 -21.85,21.85 0,12.07 9.78,21.86 21.85,21.86 12.07,0 21.85,-9.79 21.85,-21.86"/>
			<path id="path236" style="fill:#325185;fill-opacity:1;fill-rule:nonzero;stroke:none" d="m 4099.81,2366.79 h -469.56 c -31.15,0 -56.4,25.25 -56.4,56.39 v 465.68 c 0,31.14 25.25,56.4 56.4,56.4 h 469.56 c 31.16,0 56.41,-25.26 56.41,-56.4 v -465.68 c 0,-31.14 -25.25,-56.39 -56.41,-56.39"/>
			<path id="path238" style="fill:#253957;fill-opacity:1;fill-rule:nonzero;stroke:none" d="m 3597.06,2388.8 v 488.51 c 0,24.84 20.14,44.98 44.98,44.98 h 492.4 c 6.35,0 12.39,-1.33 17.85,-3.7 -7.01,15.71 -22.74,26.67 -41.05,26.67 h -492.41 c -24.84,0 -44.98,-20.14 -44.98,-44.98 v -488.51 c 0,-18.5 11.17,-34.37 27.13,-41.28 -2.5,5.59 -3.92,11.79 -3.92,18.31"/>
			<path id="path240" style="fill:#4e6eaa;fill-opacity:1;fill-rule:nonzero;stroke:none" d="m 4130.74,2940.76 c 4.68,-7.09 7.41,-15.56 7.41,-24.69 v -488.51 c 0,-24.85 -20.13,-44.98 -44.98,-44.98 h -492.41 c -7,0 -13.6,1.65 -19.51,4.5 8.05,-12.22 21.87,-20.29 37.58,-20.29 h 492.41 c 24.84,0 44.98,20.13 44.98,44.98 v 488.51 c 0,17.84 -10.42,33.21 -25.48,40.48"/>
			<path id="path242" style="fill:#325185;fill-opacity:1;fill-rule:nonzero;stroke:none" d="m 4790.91,1695.92 h -469.57 c -31.14,0 -56.4,25.25 -56.4,56.4 v 465.67 c 0,31.15 25.26,56.39 56.4,56.39 h 469.57 c 31.15,0 56.39,-25.24 56.39,-56.39 v -465.67 c 0,-31.15 -25.24,-56.4 -56.39,-56.4"/>
			<path id="path244" style="fill:#253957;fill-opacity:1;fill-rule:nonzero;stroke:none" d="m 4288.14,1717.93 v 488.52 c 0,24.83 20.15,44.98 44.99,44.98 h 492.41 c 6.34,0 12.37,-1.34 17.85,-3.71 -7.02,15.71 -22.75,26.66 -41.06,26.66 h -492.41 c -24.84,0 -44.98,-20.13 -44.98,-44.97 V 1740.9 c 0,-18.5 11.17,-34.37 27.13,-41.28 -2.5,5.59 -3.93,11.79 -3.93,18.31"/>
			<path id="path246" style="fill:#4e6eaa;fill-opacity:1;fill-rule:nonzero;stroke:none" d="m 4821.84,2269.89 c 4.66,-7.09 7.4,-15.56 7.4,-24.68 v -488.52 c 0,-24.84 -20.14,-44.98 -44.98,-44.98 h -492.4 c -7.01,0 -13.61,1.65 -19.52,4.5 8.05,-12.22 21.86,-20.29 37.58,-20.29 h 492.41 c 24.84,0 44.97,20.13 44.97,44.98 v 488.51 c 0,17.85 -10.41,33.21 -25.46,40.48"/>
			<path id="path248" style="fill:#5b7fc9;fill-opacity:1;fill-rule:nonzero;stroke:none" d="m 4103.53,1695.92 h -469.57 c -31.16,0 -56.41,25.25 -56.41,56.4 v 465.67 c 0,31.15 25.25,56.39 56.41,56.39 h 469.57 c 31.14,0 56.39,-25.24 56.39,-56.39 v -465.67 c 0,-31.15 -25.25,-56.4 -56.39,-56.4"/>
			<path id="path250" style="fill:#5ca0dc;fill-opacity:1;fill-rule:nonzero;stroke:none" d="m 4114.94,1695.92 c 24.85,0 44.98,20.13 44.98,44.98 v 488.51 c 0,18.34 -10.99,34.1 -26.75,41.1 -202.72,-315.12 -424.03,-462.8 -555.62,-527.91 v -1.7 c 0,-24.85 20.14,-44.98 44.98,-44.98 h 492.41"/>
			<path id="path252" style="fill:#ffffff;fill-opacity:1;fill-rule:nonzero;stroke:none" d="m 3865.04,1930.68 c -24.57,0 -44.47,19.92 -44.47,44.48 0,24.57 19.9,44.47 44.47,44.47 24.56,0 44.47,-19.9 44.47,-44.47 0,-24.56 -19.91,-44.48 -44.47,-44.48 z m 104.37,23.62 -16.31,9.42 c -0.97,0.56 -1.51,1.62 -1.39,2.74 0.28,2.87 0.46,5.76 0.46,8.7 0,5.55 -0.51,10.99 -1.46,16.28 -0.21,1.18 0.32,2.34 1.35,2.94 l 13.73,7.92 c 5.61,3.25 7.52,10.41 4.29,16.01 l -18.78,32.53 c -3.23,5.61 -10.4,7.52 -16.01,4.29 l -14.96,-8.64 c -1,-0.57 -2.22,-0.47 -3.14,0.24 -7.05,5.49 -14.95,9.91 -23.46,13.15 -1.09,0.42 -1.83,1.45 -1.83,2.63 v 13.48 c 0,6.47 -5.25,11.72 -11.71,11.72 h -37.56 c -6.48,0 -11.72,-5.25 -11.72,-11.72 v -13.48 c 0,-1.18 -0.73,-2.21 -1.84,-2.63 -9.68,-3.7 -18.54,-8.98 -26.3,-15.56 -0.91,-0.78 -2.2,-0.92 -3.24,-0.32 l -8.38,4.84 c -5.6,3.24 -12.77,1.32 -16,-4.29 l -18.79,-32.53 c -3.23,-5.59 -1.31,-12.76 4.29,-16 l 9.56,-5.52 c 1.02,-0.59 1.56,-1.72 1.39,-2.87 -0.58,-4.09 -0.96,-8.23 -0.96,-12.47 0,-6.83 0.84,-13.45 2.29,-19.84 0.27,-1.22 -0.25,-2.46 -1.34,-3.08 l -7.3,-4.23 c -5.61,-3.23 -7.53,-10.4 -4.29,-16.01 l 18.77,-32.52 c 3.24,-5.6 10.41,-7.53 16.01,-4.28 l 10.93,6.3 c 0.97,0.56 2.15,0.49 3.05,-0.16 8.21,-5.86 17.42,-10.37 27.34,-13.25 1.22,-0.36 2.07,-1.45 2.07,-2.71 v -11.04 c 0,-6.48 5.25,-11.72 11.71,-11.72 h 37.56 c 6.48,0 11.72,5.24 11.72,11.72 v 16.59 c 0,1.08 0.63,2.06 1.61,2.53 8.11,3.9 15.54,8.96 22.08,14.99 0.92,0.85 2.25,1.01 3.33,0.39 l 12.75,-7.36 c 5.6,-3.24 12.76,-1.31 16,4.29 l 18.78,32.52 c 3.23,5.61 1.31,12.77 -4.3,16.01"/>
			<path id="path254" style="fill:#a963b8;fill-opacity:1;fill-rule:nonzero;stroke:none" d="m 4800.28,2710.56 h -488.31 c -25.97,0 -47.03,21.05 -47.03,47.02 v 136.15 c 0,25.98 21.06,47.03 47.03,47.03 h 488.31 c 25.97,0 47.02,-21.05 47.02,-47.03 v -136.15 c 0,-25.97 -21.05,-47.02 -47.02,-47.02"/>
			<path id="path256" style="fill:#b26dbd;fill-opacity:1;fill-rule:nonzero;stroke:none" d="m 4847.3,2755.53 v 140.25 c 0,15.99 -8.35,30 -20.93,37.97 -185.94,-133.15 -448.62,-175.14 -560.47,-187.44 4.26,-20.42 22.34,-35.75 44.02,-35.75 h 492.41 c 24.84,0 44.97,20.13 44.97,44.97"/>
			<path id="path258" style="fill:#ffffff;fill-opacity:1;fill-rule:nonzero;stroke:none" d="m 4449.43,2824.33 c 0,-37.12 -30.08,-67.21 -67.19,-67.21 -37.11,0 -67.2,30.09 -67.2,67.21 0,37.11 30.09,67.19 67.2,67.19 37.11,0 67.19,-30.08 67.19,-67.19"/>
			<path id="path260" style="fill:#ffffff;fill-opacity:1;fill-rule:nonzero;stroke:none" d="m 4774.85,2856.45 h -260.42 c -3.56,0 -6.44,2.89 -6.44,6.45 0,3.56 2.88,6.44 6.44,6.44 h 260.42 c 3.56,0 6.45,-2.88 6.45,-6.44 0,-3.56 -2.89,-6.45 -6.45,-6.45"/>
			<path id="path262" style="fill:#ffffff;fill-opacity:1;fill-rule:nonzero;stroke:none" d="m 4774.85,2812.77 h -260.42 c -3.56,0 -6.44,2.88 -6.44,6.44 0,3.56 2.88,6.45 6.44,6.45 h 260.42 c 3.56,0 6.45,-2.89 6.45,-6.45 0,-3.56 -2.89,-6.44 -6.45,-6.44"/>
			<path id="path264" style="fill:#ffffff;fill-opacity:1;fill-rule:nonzero;stroke:none" d="m 4710.09,2769.08 h -195.66 c -3.56,0 -6.44,2.89 -6.44,6.45 0,3.56 2.88,6.44 6.44,6.44 h 195.66 c 3.55,0 6.44,-2.88 6.44,-6.44 0,-3.56 -2.89,-6.45 -6.44,-6.45"/>
			<path id="path266" style="fill:#f9ac6f;fill-opacity:1;fill-rule:nonzero;stroke:none" d="m 4800.27,2372.37 h -488.3 c -25.97,0 -47.03,21.06 -47.03,47.03 v 136.15 c 0,25.97 21.06,47.03 47.03,47.03 h 488.3 c 25.98,0 47.03,-21.06 47.03,-47.03 V 2419.4 c 0,-25.97 -21.05,-47.03 -47.03,-47.03"/>
			<path id="path268" style="fill:#fccc72;fill-opacity:1;fill-rule:nonzero;stroke:none" d="m 4847.3,2417.35 v 140.25 c 0,15.99 -8.35,29.99 -20.93,37.97 -185.94,-133.16 -448.62,-175.14 -560.47,-187.45 4.26,-20.41 22.34,-35.75 44.02,-35.75 h 492.41 c 24.84,0 44.97,20.14 44.97,44.98"/>
			<path id="path270" style="fill:#ffffff;fill-opacity:1;fill-rule:nonzero;stroke:none" d="m 4449.43,2486.14 c 0,-37.11 -30.08,-67.19 -67.19,-67.19 -37.11,0 -67.2,30.08 -67.2,67.19 0,37.12 30.09,67.2 67.2,67.2 37.11,0 67.19,-30.08 67.19,-67.2"/>
			<path id="path272" style="fill:#ffffff;fill-opacity:1;fill-rule:nonzero;stroke:none" d="m 4774.85,2518.27 h -260.42 c -3.56,0 -6.44,2.88 -6.44,6.44 0,3.56 2.88,6.45 6.44,6.45 h 260.42 c 3.56,0 6.45,-2.89 6.45,-6.45 0,-3.56 -2.89,-6.44 -6.45,-6.44"/>
			<path id="path274" style="fill:#ffffff;fill-opacity:1;fill-rule:nonzero;stroke:none" d="m 4774.85,2474.58 h -260.42 c -3.56,0 -6.44,2.89 -6.44,6.45 0,3.56 2.88,6.44 6.44,6.44 h 260.42 c 3.56,0 6.45,-2.88 6.45,-6.44 0,-3.56 -2.89,-6.45 -6.45,-6.45"/>
			<path id="path276" style="fill:#ffffff;fill-opacity:1;fill-rule:nonzero;stroke:none" d="m 4710.09,2430.9 h -195.66 c -3.56,0 -6.44,2.89 -6.44,6.44 0,3.57 2.88,6.45 6.44,6.45 h 195.66 c 3.55,0 6.44,-2.88 6.44,-6.45 0,-3.55 -2.89,-6.44 -6.44,-6.44"/>
			<path id="path278" style="fill:#f9ac6f;fill-opacity:1;fill-rule:nonzero;stroke:none" d="m 5678.04,1734.18 h -488.3 c -25.98,0 -47.03,21.05 -47.03,47.03 v 136.14 c 0,25.98 21.05,47.03 47.03,47.03 h 488.3 c 25.97,0 47.03,-21.05 47.03,-47.03 v -136.14 c 0,-25.98 -21.06,-47.03 -47.03,-47.03"/>
			<path id="path280" style="fill:#fccc72;fill-opacity:1;fill-rule:nonzero;stroke:none" d="m 5725.07,1779.16 v 140.24 c 0,15.99 -8.37,29.99 -20.94,37.97 -185.95,-133.15 -448.62,-175.13 -560.48,-187.44 4.26,-20.41 22.36,-35.75 44.03,-35.75 h 492.41 c 24.84,0 44.98,20.14 44.98,44.98"/>
			<path id="path282" style="fill:#ffffff;fill-opacity:1;fill-rule:nonzero;stroke:none" d="m 5327.2,1847.95 c 0,-37.11 -30.09,-67.2 -67.2,-67.2 -37.12,0 -67.21,30.09 -67.21,67.2 0,37.11 30.09,67.2 67.21,67.2 37.11,0 67.2,-30.09 67.2,-67.2"/>
			<path id="path284" style="fill:#ffffff;fill-opacity:1;fill-rule:nonzero;stroke:none" d="m 5652.61,1880.07 h -260.42 c -3.56,0 -6.45,2.89 -6.45,6.44 0,3.57 2.89,6.45 6.45,6.45 h 260.42 c 3.56,0 6.44,-2.88 6.44,-6.45 0,-3.55 -2.88,-6.44 -6.44,-6.44"/>
			<path id="path286" style="fill:#ffffff;fill-opacity:1;fill-rule:nonzero;stroke:none" d="m 5652.61,1836.39 h -260.42 c -3.56,0 -6.45,2.89 -6.45,6.44 0,3.57 2.89,6.45 6.45,6.45 h 260.42 c 3.56,0 6.44,-2.88 6.44,-6.45 0,-3.55 -2.88,-6.44 -6.44,-6.44"/>
			<path id="path288" style="fill:#ffffff;fill-opacity:1;fill-rule:nonzero;stroke:none" d="m 5587.84,1792.71 h -195.65 c -3.56,0 -6.45,2.89 -6.45,6.44 0,3.56 2.89,6.45 6.45,6.45 h 195.65 c 3.57,0 6.45,-2.89 6.45,-6.45 0,-3.55 -2.88,-6.44 -6.45,-6.44"/>
			<path id="path290" style="fill:#a963b8;fill-opacity:1;fill-rule:nonzero;stroke:none" d="m 5006.01,1412.76 h -469.56 c -31.16,0 -56.41,25.25 -56.41,56.4 v 465.66 c 0,31.16 25.25,56.41 56.41,56.41 h 469.56 c 31.15,0 56.4,-25.25 56.4,-56.41 v -465.66 c 0,-31.15 -25.25,-56.4 -56.4,-56.4"/>
			<path id="path292" style="fill:#b26dbd;fill-opacity:1;fill-rule:nonzero;stroke:none" d="m 5017.43,1412.76 c 24.85,0 44.98,20.14 44.98,44.97 v 488.52 c 0,18.35 -11,34.1 -26.76,41.09 -202.71,-315.1 -424.03,-462.8 -555.61,-527.9 v -1.71 c 0,-24.83 20.14,-44.97 44.98,-44.97 h 492.41"/>
			<path id="path294" style="fill:#ffffff;fill-opacity:1;fill-rule:nonzero;stroke:none" d="m 4599.89,1666.8 c -2.69,1.26 -4.84,3.18 -6.47,5.76 -1.63,2.58 -2.44,5.33 -2.44,8.27 0,3.1 0.91,5.99 2.73,8.68 1.83,2.7 4.53,4.8 8.1,6.3 l 96.8,40.09 c 0.96,0.31 1.67,0.48 2.15,0.48 2.62,0 5.03,-1.5 7.26,-4.47 2.2,-2.97 3.33,-6.05 3.33,-9.21 0,-3.89 -1.75,-6.55 -5.24,-7.97 l -83.84,-34.03 84.08,-35.55 c 2.69,-1.12 4.04,-3.57 4.04,-7.38 0,-3.25 -0.95,-6.37 -2.85,-9.39 -1.91,-3.02 -4.04,-4.52 -6.43,-4.52 l -2.02,0.35 -99.2,42.59"/>
			<path id="path296" style="fill:#ffffff;fill-opacity:1;fill-rule:nonzero;stroke:none" d="m 4742.92,1607.92 c -2.18,1.83 -3.27,4.25 -3.27,7.26 0,1.5 0.36,3.52 1.07,6.06 l 55.19,163.42 c 0.88,2.94 2.26,5.23 4.16,6.9 1.91,1.66 4,2.49 6.31,2.49 2.85,0 5.35,-0.93 7.5,-2.79 2.14,-1.87 3.2,-4.35 3.2,-7.43 0,-1.67 -0.36,-3.64 -1.06,-5.95 l -55.91,-165.45 c -1.66,-4.82 -4.91,-7.24 -9.75,-7.24 -2.78,0 -5.25,0.9 -7.44,2.73"/>
			<path id="path298" style="fill:#ffffff;fill-opacity:1;fill-rule:nonzero;stroke:none" d="m 4848.6,1623.86 c -2.38,0 -4.54,1.5 -6.49,4.52 -1.93,3.02 -2.91,6.14 -2.91,9.39 0,3.81 1.35,6.26 4.04,7.38 l 84.09,35.55 -83.73,34.03 c -3.57,1.42 -5.35,4.08 -5.35,7.97 0,3.16 1.12,6.24 3.33,9.21 2.22,2.97 4.64,4.47 7.25,4.47 0.48,0 1.19,-0.17 2.15,-0.48 l 96.8,-40.09 c 3.66,-1.5 6.37,-3.6 8.16,-6.3 1.78,-2.69 2.67,-5.58 2.67,-8.68 0,-2.94 -0.79,-5.71 -2.37,-8.32 -1.59,-2.62 -3.77,-4.53 -6.54,-5.71 l -99.08,-42.59 -2.02,-0.35"/>
			<path id="path300" style="fill:#e2e2e0;fill-opacity:1;fill-rule:nonzero;stroke:none" d="m 4471.76,3835.34 h -153.04 c -11.07,0 -20.05,-8.98 -20.05,-20.06 v -247.73 c 0,-11.08 8.98,-20.05 20.05,-20.05 h 188.01 c 11.07,0 20.05,8.97 20.05,20.05 v 215.28 l -55.02,52.51"/>
			<path id="path302" style="fill:#babcba;fill-opacity:1;fill-rule:nonzero;stroke:none" d="m 4471.76,3835.34 55.02,-52.51 h -45.14 c -5.46,0 -9.88,4.43 -9.88,9.89 v 42.62"/>
			<path id="path304" style="fill:#5ca0dc;fill-opacity:1;fill-rule:nonzero;stroke:none" d="m 4478.2,3628.87 h -130.95 c -1.8,0 -3.25,1.45 -3.25,3.24 0,1.79 1.45,3.24 3.25,3.24 h 130.95 c 1.79,0 3.25,-1.45 3.25,-3.24 0,-1.79 -1.46,-3.24 -3.25,-3.24"/>
			<path id="path306" style="fill:#5ca0dc;fill-opacity:1;fill-rule:nonzero;stroke:none" d="m 4478.2,3664.75 h -130.95 c -1.8,0 -3.25,1.45 -3.25,3.24 0,1.79 1.45,3.24 3.25,3.24 h 130.95 c 1.79,0 3.25,-1.45 3.25,-3.24 0,-1.79 -1.46,-3.24 -3.25,-3.24"/>
			<path id="path308" style="fill:#5ca0dc;fill-opacity:1;fill-rule:nonzero;stroke:none" d="m 4478.2,3700.62 h -130.95 c -1.8,0 -3.25,1.45 -3.25,3.24 0,1.79 1.45,3.24 3.25,3.24 h 130.95 c 1.79,0 3.25,-1.45 3.25,-3.24 0,-1.79 -1.46,-3.24 -3.25,-3.24"/>
			<path id="path310" style="fill:#5ca0dc;fill-opacity:1;fill-rule:nonzero;stroke:none" d="m 4478.2,3736.49 h -130.95 c -1.8,0 -3.25,1.46 -3.25,3.25 0,1.79 1.45,3.24 3.25,3.24 h 130.95 c 1.79,0 3.25,-1.45 3.25,-3.24 0,-1.79 -1.46,-3.25 -3.25,-3.25"/>
			<path id="path312" style="fill:#5ca0dc;fill-opacity:1;fill-rule:nonzero;stroke:none" d="m 4445.63,3597.18 h -98.38 c -1.8,0 -3.25,1.45 -3.25,3.24 0,1.79 1.45,3.24 3.25,3.24 h 98.38 c 1.79,0 3.25,-1.45 3.25,-3.24 0,-1.79 -1.46,-3.24 -3.25,-3.24"/>
			<path id="path314" style="fill:#fab672;fill-opacity:1;fill-rule:nonzero;stroke:none" d="m 4481.62,3676.99 -21.23,-22.41 -176.91,-0.46 c -13.77,-0.04 -24.91,-11.23 -24.87,-25 l 0.48,-183.07 c 0.04,-13.77 11.23,-24.9 25,-24.86 l 277.97,0.73 c 13.77,0.04 24.9,11.23 24.87,25 l -0.49,187.15 -0.06,20.85 -0.03,12.89 c -0.02,7.57 -6.17,13.69 -13.75,13.67 l -81.07,-0.21 c -3.75,-0.01 -7.33,-1.56 -9.91,-4.28"/>
			<path id="path316" style="fill:#5ca0dc;fill-opacity:1;fill-rule:nonzero;stroke:none" d="m 4624.15,3512.57 h -37.57 v 66.03 h 37.57 c 8.9,0 16.11,-7.21 16.11,-16.1 v -33.82 c 0,-8.9 -7.21,-16.11 -16.11,-16.11"/>
			<path id="path318" style="fill:#5ca0dc;fill-opacity:1;fill-rule:nonzero;stroke:none" d="m 5249.28,3200.15 v -37.57 h -66.04 v 37.57 c 0,8.89 7.22,16.1 16.12,16.1 h 33.8 c 8.9,0 16.12,-7.21 16.12,-16.1"/>
			<path id="path320" style="fill:#5ca0dc;fill-opacity:1;fill-rule:nonzero;stroke:none" d="m 4613.42,3540.59 h 501.32 c 26.67,-0.01 50.77,-10.8 68.25,-28.27 17.48,-17.49 28.27,-41.59 28.27,-68.25 v -281.49 h 10 v 281.49 c 0,58.83 -47.69,106.51 -106.52,106.52 h -501.32 v -10"/>
			<path id="path322" style="fill:#5ca0dc;fill-opacity:1;fill-rule:nonzero;stroke:none" d="m 5937.92,2851.6 h -37.57 v 66.03 h 37.57 c 8.9,0 16.11,-7.21 16.11,-16.11 v -33.81 c 0,-8.9 -7.21,-16.11 -16.11,-16.11"/>
			<path id="path324" style="fill:#5ca0dc;fill-opacity:1;fill-rule:nonzero;stroke:none" d="m 6176.84,1505.28 v -37.57 h -66.03 v 37.57 c 0,8.9 7.21,16.12 16.1,16.12 h 33.82 c 8.9,0 16.11,-7.22 16.11,-16.12"/>
			<path id="path326" style="fill:#5ca0dc;fill-opacity:1;fill-rule:nonzero;stroke:none" d="m 5927.2,2879.61 h 115.1 c 26.67,0 50.77,-10.79 68.25,-28.27 17.47,-17.48 28.27,-41.58 28.27,-68.24 V 1467.71 h 10 V 2783.1 c -0.01,58.82 -47.69,106.51 -106.52,106.51 h -115.1 v -10"/>
			<path id="path328" style="fill:#f36665;fill-opacity:1;fill-rule:nonzero;stroke:none" d="m 4264.19,1161.92 h -166.14 c -8.88,0 -16.08,7.2 -16.08,16.08 v 164.81 c 0,8.88 7.2,16.08 16.08,16.08 h 166.14 c 8.88,0 16.07,-7.2 16.07,-16.08 V 1178 c 0,-8.88 -7.19,-16.08 -16.07,-16.08"/>
			<path id="path330" style="fill:#f57867;fill-opacity:1;fill-rule:nonzero;stroke:none" d="m 4264.95,1161.92 c 8.46,0 15.31,6.86 15.31,15.32 v 166.33 c 0,6.25 -3.75,11.62 -9.11,14 -69.02,-107.3 -144.37,-157.59 -189.18,-179.75 v -0.58 c 0,-8.46 6.86,-15.32 15.32,-15.32 h 167.66"/>
			<path id="path332" style="fill:#ffffff;fill-opacity:1;fill-rule:nonzero;stroke:none" d="m 4126.92,1218.96 h 53.93 c 4.39,0 7,4.94 4.53,8.58 l -26.96,39.68 c -2.18,3.19 -6.89,3.19 -9.06,0 l -26.97,-39.68 c -2.47,-3.64 0.14,-8.58 4.53,-8.58"/>
			<path id="path334" style="fill:#ffffff;fill-opacity:1;fill-rule:nonzero;stroke:none" d="m 4177.54,1218.96 h 53.92 c 4.4,0 7.01,4.94 4.53,8.58 l -26.96,39.68 c -2.17,3.19 -6.89,3.19 -9.07,0 l -26.95,-39.68 c -2.48,-3.64 0.12,-8.58 4.53,-8.58"/>
			<path id="path336" style="fill:#ffffff;fill-opacity:1;fill-rule:nonzero;stroke:none" d="m 4188.96,1291.48 c 0,-5.72 -4.63,-10.36 -10.35,-10.36 -5.72,0 -10.35,4.64 -10.35,10.36 0,5.73 4.63,10.37 10.35,10.37 5.72,0 10.35,-4.64 10.35,-10.37"/>
			<path id="path338" style="fill:#fab672;fill-opacity:1;fill-rule:nonzero;stroke:none" d="m 4239.96,1247.37 -21.22,-22.4 -176.91,-0.46 c -13.77,-0.04 -24.91,-11.23 -24.87,-25 l 0.48,-183.07 c 0.04,-13.77 11.23,-24.909 25,-24.87 l 277.97,0.731 c 13.77,0.039 24.9,11.239 24.86,24.999 l -0.48,187.16 -0.06,20.85 -0.03,12.89 c -0.03,7.57 -6.18,13.69 -13.75,13.67 l -81.07,-0.21 c -3.75,-0.01 -7.33,-1.56 -9.92,-4.29"/>
			<path id="path340" style="fill:#5ca0dc;fill-opacity:1;fill-rule:nonzero;stroke:none" d="m 4382.5,1134.03 h -37.57 V 1068 h 37.57 c 8.9,0 16.1,7.21 16.1,16.11 v 33.82 c 0,8.9 -7.2,16.1 -16.1,16.1"/>
			<path id="path342" style="fill:#5ca0dc;fill-opacity:1;fill-rule:nonzero;stroke:none" d="m 5474.11,1509.23 v 37.57 h -66.03 v -37.57 c 0,-8.9 7.21,-16.11 16.11,-16.11 h 33.82 c 8.89,0 16.1,7.21 16.1,16.11"/>
			<path id="path344" style="fill:#5ca0dc;fill-opacity:1;fill-rule:nonzero;stroke:none" d="m 4371.77,1096.02 h 967.81 c 58.83,0 106.51,47.69 106.51,106.52 v 344.26 h -10 v -344.26 c 0,-26.67 -10.79,-50.77 -28.27,-68.25 -17.48,-17.48 -41.57,-28.27 -68.24,-28.27 h -967.81 v -10"/>
			<path id="path346" style="fill:#5ca0dc;fill-opacity:1;fill-rule:nonzero;stroke:none" d="m 3317.15,3524.25 v 37.57 h -66.03 v -37.57 c 0,-8.89 7.21,-16.11 16.11,-16.11 h 33.81 c 8.9,0 16.11,7.22 16.11,16.11"/>
			<path id="path348" style="fill:#5ca0dc;fill-opacity:1;fill-rule:nonzero;stroke:none" d="m 3910.98,3200.15 v -37.57 h 66.03 v 37.57 c 0,8.89 -7.21,16.1 -16.1,16.1 h -33.82 c -8.9,0 -16.11,-7.21 -16.11,-16.1"/>
			<path id="path350" style="fill:#5ca0dc;fill-opacity:1;fill-rule:nonzero;stroke:none" d="m 3279.14,3534.98 v -83.88 c 0,-58.83 47.69,-106.52 106.51,-106.52 h 465.41 c 24.3,-0.01 46.25,-9.84 62.18,-25.76 15.92,-15.92 25.75,-37.87 25.75,-62.17 v -73.13 h 10 v 73.13 c 0,54.09 -43.83,97.92 -97.93,97.93 h -465.41 c -26.66,0 -50.76,10.79 -68.24,28.27 -17.48,17.48 -28.27,41.58 -28.27,68.25 v 83.88 h -10"/>
			<path id="path352" style="fill:#e2e2e0;fill-opacity:1;fill-rule:nonzero;stroke:none" d="m 5326.69,2930.93 h -298.16 c -21.59,0 -39.08,-17.5 -39.08,-39.07 V 2409.2 c 0,-21.58 17.49,-39.07 39.08,-39.07 h 366.28 c 21.59,0 39.08,17.49 39.08,39.07 v 419.44 l -107.2,102.29"/>
			<path id="path354" style="fill:#ffffff;fill-opacity:1;fill-rule:nonzero;stroke:none" d="m 5326.69,2949.39 h -298.16 c -21.59,0 -39.08,-17.49 -39.08,-39.07 v -482.66 c 0,-21.58 17.49,-39.08 39.08,-39.08 h 366.28 c 21.59,0 39.08,17.5 39.08,39.08 v 419.44 l -107.2,102.29"/>
			<path id="path356" style="fill:#e2e2e0;fill-opacity:1;fill-rule:nonzero;stroke:none" d="m 5326.69,2949.39 107.2,-102.29 h -87.94 c -10.64,0 -19.26,8.62 -19.26,19.26 v 83.03"/>
			<path id="path358" style="fill:#5ca0dc;fill-opacity:1;fill-rule:nonzero;stroke:none" d="m 5339.24,2547.13 h -255.15 c -3.48,0 -6.31,2.83 -6.31,6.32 0,3.48 2.83,6.31 6.31,6.31 h 255.15 c 3.49,0 6.32,-2.83 6.32,-6.31 0,-3.49 -2.83,-6.32 -6.32,-6.32"/>
			<path id="path360" style="fill:#5ca0dc;fill-opacity:1;fill-rule:nonzero;stroke:none" d="m 5339.24,2617.03 h -255.15 c -3.48,0 -6.31,2.82 -6.31,6.31 0,3.49 2.83,6.32 6.31,6.32 h 255.15 c 3.49,0 6.32,-2.83 6.32,-6.32 0,-3.49 -2.83,-6.31 -6.32,-6.31"/>
			<path id="path362" style="fill:#5ca0dc;fill-opacity:1;fill-rule:nonzero;stroke:none" d="m 5339.24,2686.92 h -255.15 c -3.48,0 -6.31,2.83 -6.31,6.32 0,3.48 2.83,6.31 6.31,6.31 h 255.15 c 3.49,0 6.32,-2.83 6.32,-6.31 0,-3.49 -2.83,-6.32 -6.32,-6.32"/>
			<path id="path364" style="fill:#5ca0dc;fill-opacity:1;fill-rule:nonzero;stroke:none" d="m 5339.24,2756.82 h -255.15 c -3.48,0 -6.31,2.83 -6.31,6.31 0,3.49 2.83,6.32 6.31,6.32 h 255.15 c 3.49,0 6.32,-2.83 6.32,-6.32 0,-3.48 -2.83,-6.31 -6.32,-6.31"/>
			<path id="path366" style="fill:#5ca0dc;fill-opacity:1;fill-rule:nonzero;stroke:none" d="m 5275.79,2485.39 h -191.7 c -3.48,0 -6.31,2.82 -6.31,6.31 0,3.49 2.83,6.32 6.31,6.32 h 191.7 c 3.49,0 6.31,-2.83 6.31,-6.32 0,-3.49 -2.82,-6.31 -6.31,-6.31"/>
			<path id="path368" style="fill:#5ca0dc;fill-opacity:1;fill-rule:nonzero;stroke:none" d="m 5072.79,2887.29 c 0,-13.56 -10.99,-24.56 -24.56,-24.56 -13.55,0 -24.55,11 -24.55,24.56 0,13.56 11,24.56 24.55,24.56 13.57,0 24.56,-11 24.56,-24.56"/>
			<path id="path370" style="fill:#e2e2e0;fill-opacity:1;fill-rule:nonzero;stroke:none" d="m 5618.03,2638.17 h -298.17 c -21.58,0 -39.07,-17.49 -39.07,-39.06 v -482.66 c 0,-21.59 17.49,-39.08 39.07,-39.08 h 366.29 c 21.58,0 39.07,17.49 39.07,39.08 v 419.43 l -107.19,102.29"/>
			<path id="path372" style="fill:#ffffff;fill-opacity:1;fill-rule:nonzero;stroke:none" d="m 5618.03,2656.64 h -298.17 c -21.58,0 -39.07,-17.49 -39.07,-39.07 V 2134.9 c 0,-21.57 17.49,-39.06 39.07,-39.06 h 366.29 c 21.58,0 39.07,17.49 39.07,39.06 v 419.45 l -107.19,102.29"/>
			<path id="path374" style="fill:#e2e2e0;fill-opacity:1;fill-rule:nonzero;stroke:none" d="m 5618.03,2656.64 107.19,-102.29 h -87.93 c -10.64,0 -19.26,8.62 -19.26,19.25 v 83.04"/>
			<path id="path376" style="fill:#5ca0dc;fill-opacity:1;fill-rule:nonzero;stroke:none" d="m 5630.59,2254.37 h -255.16 c -3.49,0 -6.31,2.84 -6.31,6.32 0,3.49 2.82,6.32 6.31,6.32 h 255.16 c 3.48,0 6.3,-2.83 6.3,-6.32 0,-3.48 -2.82,-6.32 -6.3,-6.32"/>
			<path id="path378" style="fill:#5ca0dc;fill-opacity:1;fill-rule:nonzero;stroke:none" d="m 5630.59,2324.28 h -255.16 c -3.49,0 -6.31,2.82 -6.31,6.31 0,3.48 2.82,6.31 6.31,6.31 h 255.16 c 3.48,0 6.3,-2.83 6.3,-6.31 0,-3.49 -2.82,-6.31 -6.3,-6.31"/>
			<path id="path380" style="fill:#5ca0dc;fill-opacity:1;fill-rule:nonzero;stroke:none" d="m 5630.59,2394.17 h -255.16 c -3.49,0 -6.31,2.83 -6.31,6.32 0,3.48 2.82,6.31 6.31,6.31 h 255.16 c 3.48,0 6.3,-2.83 6.3,-6.31 0,-3.49 -2.82,-6.32 -6.3,-6.32"/>
			<path id="path382" style="fill:#5ca0dc;fill-opacity:1;fill-rule:nonzero;stroke:none" d="m 5630.59,2464.07 h -255.16 c -3.49,0 -6.31,2.82 -6.31,6.31 0,3.49 2.82,6.32 6.31,6.32 h 255.16 c 3.48,0 6.3,-2.83 6.3,-6.32 0,-3.49 -2.82,-6.31 -6.3,-6.31"/>
			<path id="path384" style="fill:#5ca0dc;fill-opacity:1;fill-rule:nonzero;stroke:none" d="m 5567.13,2192.64 h -191.7 c -3.49,0 -6.31,2.82 -6.31,6.31 0,3.49 2.82,6.31 6.31,6.31 h 191.7 c 3.49,0 6.32,-2.82 6.32,-6.31 0,-3.49 -2.83,-6.31 -6.32,-6.31"/>
			<path id="path386" style="fill:#5ca0dc;fill-opacity:1;fill-rule:nonzero;stroke:none" d="m 5364.13,2594.54 c 0,-13.56 -11,-24.56 -24.55,-24.56 -13.56,0 -24.56,11 -24.56,24.56 0,13.56 11,24.55 24.56,24.55 13.55,0 24.55,-10.99 24.55,-24.55"/>
			<path id="path388" style="fill:#5b7fc9;fill-opacity:1;fill-rule:nonzero;stroke:none" d="m 5156.36,2087.71 h -151.63 c -8.77,0 -15.89,7.11 -15.89,15.88 V 2254 c 0,8.77 7.12,15.89 15.89,15.89 h 151.63 c 8.78,0 15.9,-7.12 15.9,-15.89 v -150.41 c 0,-8.77 -7.12,-15.88 -15.9,-15.88"/>
			<path id="path390" style="fill:#5ca0dc;fill-opacity:1;fill-rule:nonzero;stroke:none" d="m 5158.09,2087.71 c 7.82,0 14.17,6.33 14.17,14.16 v 153.85 c 0,5.78 -3.47,10.74 -8.43,12.95 -63.85,-99.25 -133.55,-145.76 -174.99,-166.27 v -0.53 c 0,-7.83 6.35,-14.16 14.17,-14.16 h 155.08"/>
			<path id="path392" style="fill:#ffffff;fill-opacity:1;fill-rule:nonzero;stroke:none" d="m 5077.68,2157.23 21.06,21.06 c 0.95,0.95 2.34,1.21 3.61,0.79 9.72,-3.14 20.88,-1.06 28.64,6.27 5.79,5.48 8.76,12.75 8.93,20.07 0.08,3.18 -3.67,4.89 -5.92,2.65 l -9.56,-9.56 c -2.44,-2.45 -4.63,-2.44 -5.98,-1.08 l -15.84,15.84 c -1.36,1.36 -1.36,3.55 0,4.9 l 10.62,10.64 c 2.25,2.23 0.56,6 -2.61,5.93 -7.09,-0.17 -14.11,-2.94 -19.52,-8.35 -7.91,-7.91 -10.2,-19.3 -6.91,-29.24 0.43,-1.29 0.18,-2.7 -0.79,-3.65 l -21.06,-21.07 c -0.94,-0.95 -2.34,-1.21 -3.61,-0.8 -9.72,3.16 -20.88,1.07 -28.63,-6.27 -5.79,-5.47 -8.76,-12.73 -8.94,-20.07 -0.08,-3.17 3.67,-4.89 5.92,-2.63 l 10.64,10.63 c 1.35,1.36 3.55,1.36 4.91,0 l 15.84,-15.84 c 1.35,-1.36 1.35,-3.55 0,-4.9 l -10.64,-10.64 c -2.23,-2.24 -0.55,-6 2.62,-5.92 7.08,0.16 14.11,2.94 19.52,8.34 7.91,7.91 10.21,19.3 6.9,29.24 -0.42,1.28 -0.16,2.7 0.8,3.66"/>
			<path id="path394" style="fill:#f9ac6f;fill-opacity:1;fill-rule:nonzero;stroke:none" d="m 5581.78,2647.2 v -65.14 c 0.02,-5.88 -1.14,-12.68 -4.47,-17.49 -3.37,-4.75 -8.47,-8.34 -19.38,-8.46 -11.54,0.12 -16.69,3.76 -19.98,8.44 -3.27,4.76 -4.29,11.54 -4.27,17.51 v 99.28 c 0,2.76 -2.24,5 -5,5 -2.76,0 -5,-2.24 -5,-5 v -99.28 c 0.03,-6.93 0.96,-15.62 5.99,-23.11 5,-7.57 14.46,-12.95 28.26,-12.84 13.32,-0.11 22.64,5.32 27.64,12.82 5.03,7.44 6.18,16.11 6.21,23.13 v 65.14 c 0,2.76 -2.24,5 -5,5 -2.76,0 -5,-2.24 -5,-5"/>
			<path id="path396" style="fill:#f9ac6f;fill-opacity:1;fill-rule:nonzero;stroke:none" d="m 5591.78,2600.43 v 64.87 c -0.02,5.66 -2.04,11.65 -6.18,16.5 -4.12,4.85 -10.65,8.38 -18.66,8.34 -8.08,0.04 -14.64,-3.48 -18.73,-8.35 -4.13,-4.88 -6.08,-10.86 -6.1,-16.49 v -50.83 c 0,-2.76 2.24,-5 5,-5 2.76,0 5,2.24 5,5 v 50.83 c -0.02,3.24 1.26,7.17 3.7,10 2.48,2.83 5.83,4.79 11.13,4.84 5.18,-0.04 8.56,-2.01 11.07,-4.86 2.48,-2.85 3.79,-6.78 3.77,-9.98 v -64.87 c 0,-2.76 2.24,-5 5,-5 2.76,0 5,2.24 5,5"/>
			<path id="path398" style="fill:#f9ac6f;fill-opacity:1;fill-rule:nonzero;stroke:none" d="m 5542.11,2636.41 v -46.62 l -0.01,-2.17 c 0.03,-2.96 0.06,-7.15 1.99,-11.37 0.97,-2.09 2.56,-4.21 4.89,-5.7 2.32,-1.51 5.22,-2.27 8.38,-2.26 3.34,-0.01 6.32,0.69 8.78,2.11 3.74,2.13 5.74,5.67 6.62,8.77 0.92,3.15 0.99,6.1 1,8.34 0,0.92 -0.02,1.71 -0.02,2.28 v 57.41 c 0,2.76 -2.24,5 -5,5 -2.76,0 -5,-2.24 -5,-5 v -57.41 l 0.02,-2.28 c 0.03,-2.54 -0.28,-5.38 -1.12,-6.85 l -1.48,-1.59 c -0.68,-0.39 -1.79,-0.78 -3.8,-0.78 -1.66,0.01 -2.46,0.34 -2.96,0.66 -0.72,0.46 -1.31,1.3 -1.76,2.97 -0.44,1.63 -0.55,3.78 -0.54,5.7 l 0.01,2.17 v 46.62 c 0,2.76 -2.24,5 -5,5 -2.76,0 -5,-2.24 -5,-5"/>
			<path id="path400" style="fill:#f9ac6f;fill-opacity:1;fill-rule:nonzero;stroke:none" d="m 5287.53,2949.78 v -65.14 c 0.02,-5.87 -1.14,-12.67 -4.47,-17.48 -3.37,-4.75 -8.48,-8.35 -19.38,-8.46 -11.53,0.12 -16.69,3.76 -19.98,8.44 -3.27,4.75 -4.29,11.53 -4.27,17.5 v 99.29 c 0,2.76 -2.24,5 -5,5 -2.76,0 -5,-2.24 -5,-5 v -99.29 c 0.03,-6.93 0.97,-15.61 5.99,-23.11 5,-7.57 14.47,-12.95 28.26,-12.83 13.32,-0.11 22.64,5.32 27.64,12.81 5.03,7.44 6.19,16.11 6.21,23.13 v 65.14 c 0,2.76 -2.24,5 -5,5 -2.76,0 -5,-2.24 -5,-5"/>
			<path id="path402" style="fill:#f9ac6f;fill-opacity:1;fill-rule:nonzero;stroke:none" d="m 5297.53,2903.02 v 64.87 c -0.02,5.66 -2.04,11.64 -6.18,16.49 -4.11,4.85 -10.65,8.38 -18.65,8.34 -8.09,0.04 -14.65,-3.48 -18.74,-8.35 -4.13,-4.87 -6.08,-10.86 -6.1,-16.48 v -50.83 c 0,-2.77 2.24,-5 5,-5 2.76,0 5,2.23 5,5 v 50.83 c -0.02,3.23 1.26,7.16 3.7,9.99 2.48,2.83 5.84,4.8 11.14,4.84 5.17,-0.04 8.55,-2 11.06,-4.86 2.48,-2.84 3.79,-6.78 3.77,-9.97 v -64.87 c 0,-2.76 2.24,-5 5,-5 2.76,0 5,2.24 5,5"/>
			<path id="path404" style="fill:#f9ac6f;fill-opacity:1;fill-rule:nonzero;stroke:none" d="m 5247.86,2938.99 v -46.61 l -0.01,-2.2 c 0.03,-2.97 0.06,-7.15 1.99,-11.36 0.97,-2.08 2.56,-4.2 4.89,-5.69 2.32,-1.5 5.22,-2.27 8.38,-2.26 3.33,0 6.32,0.7 8.78,2.11 3.74,2.13 5.74,5.68 6.63,8.78 0.91,3.14 0.98,6.1 0.99,8.34 0,0.91 -0.02,1.7 -0.02,2.28 v 57.4 c 0,2.76 -2.24,5 -5,5 -2.76,0 -5,-2.24 -5,-5 v -57.4 l 0.02,-2.28 c 0.03,-2.54 -0.28,-5.38 -1.11,-6.85 l -1.49,-1.59 c -0.68,-0.39 -1.8,-0.78 -3.8,-0.79 -1.67,0.02 -2.46,0.35 -2.97,0.67 -0.71,0.45 -1.3,1.29 -1.75,2.95 -0.44,1.62 -0.55,3.77 -0.54,5.69 l 0.01,2.2 v 46.61 c 0,2.76 -2.24,5 -5,5 -2.76,0 -5,-2.24 -5,-5"/>
			<path id="path406" style="fill:#5ca0dc;fill-opacity:1;fill-rule:nonzero;stroke:none" d="m 5738.86,3534.48 c 1.39,0 92.57,0 92.57,0 h 211.4 80.23 c 50.19,0 90.89,40.7 90.89,90.89 0,50.2 -40.7,90.88 -90.89,90.88 l -2.23,-0.11 c -13.85,88.99 -90.8,157.1 -183.67,157.1 -73.08,0 -136.28,-42.19 -166.65,-103.51 -10.1,2.76 -20.68,4.36 -31.65,4.36 -66.16,0 -119.81,-53.64 -119.81,-119.8 0,-66.17 53.65,-119.81 119.81,-119.81"/>
			<path id="path408" style="fill:#ffffff;fill-opacity:1;fill-rule:nonzero;stroke:none" d="m 5983.09,3639.78 -115.57,0.11 c -4.06,0 -6.56,4.43 -4.47,7.91 l 57.87,96.18 c 2.03,3.38 6.93,3.37 8.95,-0.01 l 57.7,-96.28 c 2.09,-3.49 -0.42,-7.91 -4.48,-7.91"/>
			<path id="path410" style="fill:#ffffff;fill-opacity:1;fill-rule:nonzero;stroke:none" d="m 5920.99,3604.75 8.51,-0.01 c 5.19,-0.01 9.4,4.2 9.41,9.38 l 0.06,80.23 c 0.01,5.18 -4.19,9.4 -9.38,9.4 h -8.51 c -5.19,0.01 -9.4,-4.19 -9.41,-9.38 l -0.07,-80.22 c 0,-5.19 4.2,-9.4 9.39,-9.4"/>
			<path id="path412" style="fill:#5ca0dc;fill-opacity:1;fill-rule:nonzero;stroke:none" d="m 3153.22,1032.83 c 1.39,0 92.57,0 92.57,0 h 211.41 80.22 c 50.19,0 90.89,40.69 90.89,90.88 0,50.2 -40.7,90.89 -90.89,90.89 l -2.23,-0.12 c -13.85,89 -90.8,157.1 -183.67,157.1 -73.08,0 -136.27,-42.19 -166.65,-103.51 -10.1,2.76 -20.68,4.36 -31.65,4.36 -66.16,0 -119.8,-53.63 -119.8,-119.8 0,-66.17 53.64,-119.8 119.8,-119.8"/>
			<path id="path414" style="fill:#ffffff;fill-opacity:1;fill-rule:nonzero;stroke:none" d="m 3281.94,1209.81 115.58,-0.1 c 4.06,0 6.56,-4.44 4.47,-7.91 l -57.88,-96.18 c -2.03,-3.38 -6.92,-3.38 -8.95,0 l -57.7,96.28 c -2.08,3.49 0.43,7.91 4.48,7.91"/>
			<path id="path416" style="fill:#ffffff;fill-opacity:1;fill-rule:nonzero;stroke:none" d="m 3344.05,1244.84 -8.51,0.01 c -5.19,0.01 -9.4,-4.2 -9.41,-9.38 l -0.07,-80.22 c -0.01,-5.19 4.2,-9.4 9.39,-9.4 l 8.51,-0.01 c 5.19,-0.01 9.39,4.2 9.4,9.38 l 0.07,80.23 c 0.01,5.18 -4.2,9.39 -9.38,9.39"/>
			<path id="path418" style="fill:#f36665;fill-opacity:1;fill-rule:nonzero;stroke:none" d="M 3699.77,2488.49 H 3230.2 c -31.15,0 -56.4,25.25 -56.4,56.4 v 465.67 c 0,31.14 25.25,56.4 56.4,56.4 h 469.57 c 31.15,0 56.4,-25.26 56.4,-56.4 v -465.67 c 0,-31.15 -25.25,-56.4 -56.4,-56.4"/>
			<path id="path420" style="fill:#f57867;fill-opacity:1;fill-rule:nonzero;stroke:none" d="m 3711.19,2488.49 c 24.84,0 44.98,20.13 44.98,44.98 v 488.51 c 0,18.34 -11,34.09 -26.75,41.1 -202.72,-315.12 -424.04,-462.81 -555.62,-527.91 v -1.7 c 0,-24.85 20.14,-44.98 44.98,-44.98 h 492.41"/>
			<path id="path422" style="fill:#f57867;fill-opacity:1;fill-rule:nonzero;stroke:none" d="m 3735.55,2452.95 v 10 h -541.13 c -12.84,0 -24.38,5.18 -32.81,13.59 -8.41,8.42 -13.58,19.96 -13.59,32.81 v 536.75 c 0.01,12.84 5.18,24.38 13.59,32.81 8.43,8.41 19.97,13.58 32.81,13.59 h 541.13 c 12.84,-0.01 24.38,-5.18 32.81,-13.59 8.41,-8.43 13.59,-19.97 13.59,-32.81 v -536.75 c 0,-12.85 -5.18,-24.39 -13.59,-32.81 -8.43,-8.41 -19.97,-13.59 -32.81,-13.59 v -10 -10 c 36.67,0.01 66.4,29.72 66.4,66.4 v 536.75 c 0,36.67 -29.73,66.39 -66.4,66.4 h -541.13 c -36.67,-0.01 -66.39,-29.73 -66.4,-66.4 v -536.75 c 0.01,-36.68 29.73,-66.4 66.4,-66.4 h 541.13 v 10"/>
			<path id="path424" style="fill:#ffffff;fill-opacity:1;fill-rule:nonzero;stroke:none" d="m 3305.83,2656.02 h 158.37 c 12.92,0 20.57,14.47 13.3,25.17 l -79.18,116.52 c -6.39,9.4 -20.23,9.4 -26.62,0 l -79.18,-116.52 c -7.27,-10.7 0.39,-25.17 13.31,-25.17"/>
			<path id="path426" style="fill:#ffffff;fill-opacity:1;fill-rule:nonzero;stroke:none" d="m 3454.47,2656.02 h 158.36 c 12.93,0 20.58,14.47 13.31,25.17 l -79.18,116.52 c -6.39,9.4 -20.23,9.4 -26.62,0 l -79.18,-116.52 c -7.27,-10.7 0.38,-25.17 13.31,-25.17"/>
			<path id="path428" style="fill:#ffffff;fill-opacity:1;fill-rule:nonzero;stroke:none" d="m 3488.02,2868.99 c 0,-16.8 -13.61,-30.42 -30.4,-30.42 -16.79,0 -30.4,13.62 -30.4,30.42 0,16.81 13.61,30.43 30.4,30.43 16.79,0 30.4,-13.62 30.4,-30.43"/>
			<path id="path430" style="fill:#ffffff;fill-opacity:1;fill-rule:nonzero;stroke:none" d="m 3869.03,2531.48 -119.08,-118.87 c -4.19,-4.17 -11.33,-2.19 -12.75,3.54 l -39.44,158.6 c -1.38,5.57 3.66,10.6 9.22,9.21 l 158.53,-39.73 c 5.73,-1.43 7.7,-8.58 3.52,-12.75"/>
			<path id="path432" style="fill:#ffffff;fill-opacity:1;fill-rule:nonzero;stroke:none" d="m 3869.58,2397.01 14.83,14.81 c 3.68,3.67 3.68,9.62 0.01,13.29 l -88.56,88.72 c -3.66,3.67 -9.62,3.68 -13.29,0.01 l -14.83,-14.81 c -3.67,-3.66 -3.68,-9.61 -0.02,-13.28 l 88.57,-88.72 c 3.67,-3.67 9.62,-3.68 13.29,-0.02"/>
			<path id="path434" style="fill:#5ca0dc;fill-opacity:1;fill-rule:nonzero;stroke:none" d="m 5134.24,1101.02 c 0,-50.64 -41.05,-91.68 -91.68,-91.68 -50.65,0 -91.69,41.04 -91.69,91.68 0,50.64 41.04,91.69 91.69,91.69 50.63,0 91.68,-41.05 91.68,-91.69"/>
			<path id="path436" style="fill:#ffffff;fill-opacity:1;fill-rule:nonzero;stroke:none" d="m 5065.64,1149.06 v 0.02 c -0.52,1.24 -1.19,2.39 -1.91,3.51 l -0.51,0.7 -2.06,2.51 -0.56,0.58 c -1.91,1.85 -4.13,3.36 -6.57,4.42 l -0.86,0.33 c -0.96,0.38 -1.94,0.69 -2.96,0.92 l -1.09,0.25 c -1.32,0.25 -2.66,0.41 -4.04,0.41 h -5.05 c -1.38,0 -2.73,-0.16 -4.04,-0.41 l -1.1,-0.25 c -1.01,-0.23 -1.99,-0.54 -2.96,-0.92 l -0.86,-0.33 c -2.44,-1.06 -4.65,-2.57 -6.56,-4.42 l -0.55,-0.58 -2.08,-2.51 -0.5,-0.7 c -0.73,-1.12 -1.39,-2.27 -1.92,-3.51 v -0.02 c -1.13,-2.66 -1.75,-5.59 -1.75,-8.67 v -13.51 c 0,-2.17 1.76,-3.93 3.94,-3.93 2.18,0 3.94,1.76 3.94,3.93 v 13.51 c 0,2.02 0.43,3.95 1.18,5.7 0.49,1.14 1.15,2.14 1.88,3.09 l 0.68,0.82 c 0.8,0.89 1.67,1.71 2.64,2.37 l 0.4,0.22 c 0.93,0.57 1.93,1.03 2.97,1.39 l 0.95,0.3 c 1.2,0.32 2.45,0.55 3.74,0.55 h 5.05 c 1.29,0 2.54,-0.23 3.74,-0.55 l 0.96,-0.3 c 1.03,-0.36 2.03,-0.82 2.95,-1.39 l 0.4,-0.22 c 0.98,-0.66 1.85,-1.48 2.65,-2.37 l 0.68,-0.82 c 0.73,-0.95 1.39,-1.95 1.88,-3.09 0.75,-1.75 1.18,-3.68 1.18,-5.7 v -13.51 c 0,-2.17 1.76,-3.93 3.94,-3.93 2.17,0 3.94,1.76 3.94,3.93 v 13.51 c 0,3.08 -0.62,6.01 -1.76,8.67"/>
			<path id="path438" style="fill:#ffffff;fill-opacity:1;fill-rule:nonzero;stroke:none" d="m 5042.55,1071.81 c -2.18,0 -3.94,1.76 -3.94,3.93 v 13.87 c 0,2.18 1.76,3.94 3.94,3.94 2.18,0 3.94,-1.76 3.94,-3.94 v -13.87 c 0,-2.17 -1.76,-3.93 -3.94,-3.93"/>
			<path id="path440" style="fill:#ffffff;fill-opacity:1;fill-rule:nonzero;stroke:none" d="m 5020.6,1120.72 c -6.52,0 -11.82,-5.3 -11.82,-11.81 v -43.92 c 0,-6.51 5.3,-11.82 11.82,-11.82 h 43.91 c 6.53,0 11.82,5.31 11.82,11.82 v 43.92 c 0,6.51 -5.29,11.81 -11.82,11.81 z m 43.91,-75.43 h -43.91 c -10.86,0 -19.7,8.84 -19.7,19.7 v 43.92 c 0,10.86 8.84,19.69 19.7,19.69 h 43.91 c 10.86,0 19.7,-8.83 19.7,-19.69 v -43.92 c 0,-10.86 -8.84,-19.7 -19.7,-19.7"/>
			<path id="path442" style="fill:#ffffff;fill-opacity:1;fill-rule:nonzero;stroke:none" d="m 5050.89,1090.42 c 0,-4.6 -3.73,-8.33 -8.33,-8.33 -4.61,0 -8.33,3.73 -8.33,8.33 0,4.6 3.72,8.33 8.33,8.33 4.6,0 8.33,-3.73 8.33,-8.33"/>
			<path id="path444" style="fill:#5ca0dc;fill-opacity:1;fill-rule:nonzero;stroke:none" d="m 5274.93,3521.13 c 0,-50.64 -41.05,-91.69 -91.69,-91.69 -50.63,0 -91.68,41.05 -91.68,91.69 0,50.63 41.05,91.68 91.68,91.68 50.64,0 91.69,-41.05 91.69,-91.68"/>
			<path id="path446" style="fill:#ffffff;fill-opacity:1;fill-rule:nonzero;stroke:none" d="m 5206.33,3569.17 v 0.01 c -0.53,1.25 -1.18,2.41 -1.91,3.52 l -0.51,0.7 -2.06,2.51 -0.56,0.57 c -1.91,1.86 -4.13,3.36 -6.57,4.43 l -0.86,0.34 c -0.96,0.37 -1.95,0.67 -2.95,0.91 l -1.1,0.25 c -1.32,0.24 -2.66,0.41 -4.05,0.41 h -5.04 c -1.37,0 -2.72,-0.17 -4.05,-0.41 l -1.09,-0.25 c -1.01,-0.24 -2,-0.54 -2.95,-0.91 l -0.86,-0.34 c -2.44,-1.07 -4.66,-2.57 -6.57,-4.43 l -0.56,-0.57 -2.06,-2.51 -0.52,-0.7 c -0.71,-1.11 -1.38,-2.27 -1.9,-3.52 v -0.01 c -1.14,-2.67 -1.76,-5.6 -1.76,-8.67 v -13.51 c 0,-2.17 1.76,-3.93 3.93,-3.93 2.18,0 3.95,1.76 3.95,3.93 v 13.51 c 0,2.02 0.42,3.95 1.18,5.7 0.49,1.13 1.15,2.14 1.88,3.09 l 0.68,0.82 c 0.8,0.89 1.66,1.71 2.65,2.37 l 0.4,0.22 c 0.91,0.58 1.92,1.04 2.96,1.39 l 0.94,0.29 c 1.21,0.33 2.45,0.56 3.75,0.56 h 5.04 c 1.3,0 2.54,-0.23 3.75,-0.56 l 0.95,-0.29 c 1.03,-0.35 2.03,-0.81 2.96,-1.39 l 0.4,-0.22 c 0.98,-0.66 1.85,-1.48 2.64,-2.37 l 0.69,-0.82 c 0.72,-0.95 1.39,-1.96 1.87,-3.09 0.77,-1.75 1.19,-3.68 1.19,-5.7 v -13.51 c 0,-2.17 1.76,-3.93 3.94,-3.93 2.18,0 3.94,1.76 3.94,3.93 v 13.51 c 0,3.07 -0.63,6 -1.76,8.67"/>
			<path id="path448" style="fill:#ffffff;fill-opacity:1;fill-rule:nonzero;stroke:none" d="m 5183.24,3491.92 c -2.18,0 -3.94,1.76 -3.94,3.93 v 13.87 c 0,2.18 1.76,3.94 3.94,3.94 2.18,0 3.94,-1.76 3.94,-3.94 v -13.87 c 0,-2.17 -1.76,-3.93 -3.94,-3.93"/>
			<path id="path450" style="fill:#ffffff;fill-opacity:1;fill-rule:nonzero;stroke:none" d="m 5161.28,3540.83 c -6.51,0 -11.82,-5.3 -11.82,-11.81 v -43.92 c 0,-6.52 5.31,-11.82 11.82,-11.82 h 43.93 c 6.51,0 11.81,5.3 11.81,11.82 v 43.92 c 0,6.51 -5.3,11.81 -11.81,11.81 z m 43.93,-75.42 h -43.93 c -10.86,0 -19.7,8.83 -19.7,19.69 v 43.92 c 0,10.86 8.84,19.69 19.7,19.69 h 43.93 c 10.85,0 19.69,-8.83 19.69,-19.69 v -43.92 c 0,-10.86 -8.84,-19.69 -19.69,-19.69"/>
			<path id="path452" style="fill:#ffffff;fill-opacity:1;fill-rule:nonzero;stroke:none" d="m 5191.57,3510.53 c 0,-4.6 -3.73,-8.33 -8.33,-8.33 -4.6,0 -8.33,3.73 -8.33,8.33 0,4.6 3.73,8.33 8.33,8.33 4.6,0 8.33,-3.73 8.33,-8.33"/>
			<path id="path454" style="fill:#cfd1ce;fill-opacity:1;fill-rule:nonzero;stroke:none" d="m 6244.86,1204.09 h -203.05 c -10.53,0 -19.07,8.54 -19.07,19.06 v 115.36 c 0,10.52 8.54,19.06 19.07,19.06 h 203.05 c 10.53,0 19.07,-8.54 19.07,-19.06 v -115.36 c 0,-10.52 -8.54,-19.06 -19.07,-19.06"/>
			<path id="path456" style="fill:#e2e2e0;fill-opacity:1;fill-rule:nonzero;stroke:none" d="m 6261.66,1347.53 c -3.22,5.98 -9.54,10.04 -16.8,10.04 h 5.13 c 5.91,0 10.92,-3.69 12.95,-8.87 l -1.28,-1.17 m -236.65,0 -1.28,1.17 c 2.03,5.18 7.04,8.87 12.95,8.87 h 5.13 c -7.27,0 -13.58,-4.06 -16.8,-10.04"/>
			<path id="path458" style="fill:#b7b9b7;fill-opacity:1;fill-rule:nonzero;stroke:none" d="m 6143.33,1244.33 c -2.9,0 -5.8,0.98 -8.29,2.93 l -110.03,100.27 c 3.22,5.98 9.53,10.04 16.8,10.04 h 203.05 c 7.26,0 13.58,-4.06 16.8,-10.04 l -110.03,-100.27 c -2.49,-1.95 -5.39,-2.93 -8.3,-2.93"/>
			<path id="path460" style="fill:#e2e2e0;fill-opacity:1;fill-rule:nonzero;stroke:none" d="m 6249.99,1357.57 h -213.31 c -5.91,0 -10.92,-3.69 -12.95,-8.87 l 111.31,-86.71 c 4.99,-3.89 11.6,-3.89 16.59,0 l 111.31,86.71 c -2.03,5.18 -7.04,8.87 -12.95,8.87"/>
			<path id="path462" style="fill:#ffffff;fill-opacity:1;fill-rule:nonzero;stroke:none" d="m 5706.01,2805.23 h -183.88 c -10.53,0 -19.06,8.54 -19.06,19.07 v 103.15 c 0,10.52 8.52,19.06 19.06,19.06 h 183.88 c 10.52,0 19.06,-8.54 19.06,-19.06 V 2824.3 c 0,-10.53 -8.54,-19.07 -19.06,-19.07"/>
			<path id="path464" style="fill:#2b4877;fill-opacity:1;fill-rule:nonzero;stroke:none" d="m 5505.56,2936.89 -1.6,1.46 c 1.87,4.77 6.49,8.16 11.93,8.16 h 6.24 c -7.1,0 -13.29,-3.87 -16.57,-9.62 m 217.01,0 c -3.29,5.75 -9.47,9.62 -16.56,9.62 h 6.24 c 5.43,0 10.04,-3.39 11.91,-8.16 l -1.59,-1.46"/>
			<path id="path466" style="fill:#e2e2e0;fill-opacity:1;fill-rule:nonzero;stroke:none" d="m 5614.07,2842.28 c -2.67,0 -5.34,0.89 -7.64,2.69 l -100.87,91.92 c 3.28,5.75 9.47,9.62 16.57,9.62 h 183.88 c 7.09,0 13.27,-3.87 16.56,-9.62 l -100.87,-91.92 c -2.3,-1.8 -4.96,-2.69 -7.63,-2.69"/>
			<path id="path468" style="fill:#ffffff;fill-opacity:1;fill-rule:nonzero;stroke:none" d="m 5712.25,2946.51 h -196.36 c -5.44,0 -10.06,-3.39 -11.93,-8.17 l 102.47,-79.81 c 4.6,-3.58 10.68,-3.58 15.27,0 l 102.46,79.81 c -1.87,4.78 -6.48,8.17 -11.91,8.17"/>
			<path id="path470" style="fill:#fab672;fill-opacity:1;fill-rule:nonzero;stroke:none" d="m 6202.67,1247.68 -21.22,-22.41 -176.92,-0.47 c -13.77,-0.03 -24.9,-11.23 -24.86,-25 l 0.48,-183.07 c 0.04,-13.77 11.23,-24.89 25,-24.859 l 277.97,0.738 c 13.76,0.032 24.9,11.221 24.86,24.991 l -0.49,187.16 -0.06,20.85 -0.03,12.89 c -0.02,7.56 -6.18,13.69 -13.75,13.67 l -81.06,-0.22 c -3.75,-0.01 -7.34,-1.55 -9.92,-4.27"/>
			<path id="path472" style="fill:#325185;fill-opacity:1;fill-rule:nonzero;stroke:none" d="M 3412.97,3561.82 H 3155.3 c -22.45,0 -40.64,18.19 -40.64,40.64 v 109.85 c 0,22.45 18.19,40.64 40.64,40.64 h 257.67 c 22.45,0 40.64,-18.19 40.64,-40.64 v -109.85 c 0,-22.45 -18.19,-40.64 -40.64,-40.64"/>
			<path id="path474" style="fill:#f36665;fill-opacity:1;fill-rule:nonzero;stroke:none" d="m 3161.83,3690.58 h -7.04 c -5.31,0 -9.6,4.3 -9.6,9.6 v 1.79 c 0,5.31 4.29,9.6 9.6,9.6 h 7.04 c 5.3,0 9.6,-4.29 9.6,-9.6 v -1.79 c 0,-5.3 -4.3,-9.6 -9.6,-9.6"/>
			<path id="path476" style="fill:#f36665;fill-opacity:1;fill-rule:nonzero;stroke:none" d="m 3266.73,3690.58 h -7.04 c -5.3,0 -9.6,4.3 -9.6,9.6 v 1.79 c 0,5.31 4.3,9.6 9.6,9.6 h 7.04 c 5.31,0 9.6,-4.29 9.6,-9.6 v -1.79 c 0,-5.3 -4.29,-9.6 -9.6,-9.6"/>
			<path id="path478" style="fill:#f9ac6f;fill-opacity:1;fill-rule:nonzero;stroke:none" d="m 3223.67,3690.58 h -25.82 c -5.3,0 -9.6,4.3 -9.6,9.6 v 1.79 c 0,5.31 4.3,9.6 9.6,9.6 h 25.82 c 5.3,0 9.6,-4.29 9.6,-9.6 v -1.79 c 0,-5.3 -4.3,-9.6 -9.6,-9.6"/>
			<path id="path480" style="fill:#f36665;fill-opacity:1;fill-rule:nonzero;stroke:none" d="m 3402.94,3690.58 h -91.42 c -5.3,0 -9.6,4.3 -9.6,9.6 v 1.79 c 0,5.31 4.3,9.6 9.6,9.6 h 91.42 c 5.3,0 9.6,-4.29 9.6,-9.6 v -1.79 c 0,-5.3 -4.3,-9.6 -9.6,-9.6"/>
			<path id="path482" style="fill:#f9ac6f;fill-opacity:1;fill-rule:nonzero;stroke:none" d="m 3161.83,3603.2 h -7.04 c -5.31,0 -9.6,4.3 -9.6,9.6 v 1.79 c 0,5.31 4.29,9.6 9.6,9.6 h 7.04 c 5.3,0 9.6,-4.29 9.6,-9.6 v -1.79 c 0,-5.3 -4.3,-9.6 -9.6,-9.6"/>
			<path id="path484" style="fill:#f9ac6f;fill-opacity:1;fill-rule:nonzero;stroke:none" d="m 3413.49,3603.2 h -7.04 c -5.3,0 -9.6,4.3 -9.6,9.6 v 1.79 c 0,5.31 4.3,9.6 9.6,9.6 h 7.04 c 5.3,0 9.6,-4.29 9.6,-9.6 v -1.79 c 0,-5.3 -4.3,-9.6 -9.6,-9.6"/>
			<path id="path486" style="fill:#f36665;fill-opacity:1;fill-rule:nonzero;stroke:none" d="m 3223.67,3603.2 h -25.82 c -5.3,0 -9.6,4.3 -9.6,9.6 v 1.79 c 0,5.31 4.3,9.6 9.6,9.6 h 25.82 c 5.3,0 9.6,-4.29 9.6,-9.6 v -1.79 c 0,-5.3 -4.3,-9.6 -9.6,-9.6"/>
			<path id="path488" style="fill:#f9ac6f;fill-opacity:1;fill-rule:nonzero;stroke:none" d="m 3365.19,3603.2 h -76.71 c -5.31,0 -9.6,4.3 -9.6,9.6 v 1.79 c 0,5.31 4.29,9.6 9.6,9.6 h 76.71 c 5.3,0 9.6,-4.29 9.6,-9.6 v -1.79 c 0,-5.3 -4.3,-9.6 -9.6,-9.6"/>
			<path id="path490" style="fill:#f9ac6f;fill-opacity:1;fill-rule:nonzero;stroke:none" d="m 3161.83,3647.31 h -7.04 c -5.31,0 -9.6,4.3 -9.6,9.6 v 1.8 c 0,5.3 4.29,9.6 9.6,9.6 h 7.04 c 5.3,0 9.6,-4.3 9.6,-9.6 v -1.8 c 0,-5.3 -4.3,-9.6 -9.6,-9.6"/>
			<path id="path492" style="fill:#f36665;fill-opacity:1;fill-rule:nonzero;stroke:none" d="m 3202.54,3647.31 h -7.04 c -5.3,0 -9.6,4.3 -9.6,9.6 v 1.8 c 0,5.3 4.3,9.6 9.6,9.6 h 7.04 c 5.31,0 9.6,-4.3 9.6,-9.6 v -1.8 c 0,-5.3 -4.29,-9.6 -9.6,-9.6"/>
			<path id="path494" style="fill:#f9ac6f;fill-opacity:1;fill-rule:nonzero;stroke:none" d="m 3286.84,3647.31 h -45.27 c -5.31,0 -9.6,4.3 -9.6,9.6 v 1.8 c 0,5.3 4.29,9.6 9.6,9.6 h 45.27 c 5.3,0 9.6,-4.3 9.6,-9.6 v -1.8 c 0,-5.3 -4.3,-9.6 -9.6,-9.6"/>
			<path id="path496" style="fill:#325185;fill-opacity:1;fill-rule:nonzero;stroke:none" d="M 3412.97,3772.2 H 3155.3 c -22.45,0 -40.64,18.2 -40.64,40.64 v 47.08 c 0,22.44 18.19,40.64 40.64,40.64 h 257.67 c 22.45,0 40.64,-18.2 40.64,-40.64 v -47.08 c 0,-22.44 -18.19,-40.64 -40.64,-40.64"/>
			<path id="path498" style="fill:#f9ac6f;fill-opacity:1;fill-rule:nonzero;stroke:none" d="m 3161.83,3803.83 h -7.04 c -5.31,0 -9.6,4.29 -9.6,9.6 v 1.79 c 0,5.3 4.29,9.6 9.6,9.6 h 7.04 c 5.3,0 9.6,-4.3 9.6,-9.6 v -1.79 c 0,-5.31 -4.3,-9.6 -9.6,-9.6"/>
			<path id="path500" style="fill:#f9ac6f;fill-opacity:1;fill-rule:nonzero;stroke:none" d="m 3413.49,3803.83 h -7.04 c -5.3,0 -9.6,4.29 -9.6,9.6 v 1.79 c 0,5.3 4.3,9.6 9.6,9.6 h 7.04 c 5.3,0 9.6,-4.3 9.6,-9.6 v -1.79 c 0,-5.31 -4.3,-9.6 -9.6,-9.6"/>
			<path id="path502" style="fill:#f36665;fill-opacity:1;fill-rule:nonzero;stroke:none" d="m 3223.67,3803.83 h -25.82 c -5.3,0 -9.6,4.29 -9.6,9.6 v 1.79 c 0,5.3 4.3,9.6 9.6,9.6 h 25.82 c 5.3,0 9.6,-4.3 9.6,-9.6 v -1.79 c 0,-5.31 -4.3,-9.6 -9.6,-9.6"/>
			<path id="path504" style="fill:#f9ac6f;fill-opacity:1;fill-rule:nonzero;stroke:none" d="m 3365.19,3803.83 h -76.71 c -5.31,0 -9.6,4.29 -9.6,9.6 v 1.79 c 0,5.3 4.29,9.6 9.6,9.6 h 76.71 c 5.3,0 9.6,-4.3 9.6,-9.6 v -1.79 c 0,-5.31 -4.3,-9.6 -9.6,-9.6"/>
			<path id="path506" style="fill:#f9ac6f;fill-opacity:1;fill-rule:nonzero;stroke:none" d="m 3161.83,3847.94 h -7.04 c -5.31,0 -9.6,4.3 -9.6,9.6 v 1.79 c 0,5.3 4.29,9.6 9.6,9.6 h 7.04 c 5.3,0 9.6,-4.3 9.6,-9.6 v -1.79 c 0,-5.3 -4.3,-9.6 -9.6,-9.6"/>
			<path id="path508" style="fill:#f36665;fill-opacity:1;fill-rule:nonzero;stroke:none" d="m 3202.54,3847.94 h -7.04 c -5.3,0 -9.6,4.3 -9.6,9.6 v 1.79 c 0,5.3 4.3,9.6 9.6,9.6 h 7.04 c 5.31,0 9.6,-4.3 9.6,-9.6 v -1.79 c 0,-5.3 -4.29,-9.6 -9.6,-9.6"/>
			<path id="path510" style="fill:#f9ac6f;fill-opacity:1;fill-rule:nonzero;stroke:none" d="m 3286.84,3847.94 h -45.27 c -5.31,0 -9.6,4.3 -9.6,9.6 v 1.79 c 0,5.3 4.29,9.6 9.6,9.6 h 45.27 c 5.3,0 9.6,-4.3 9.6,-9.6 v -1.79 c 0,-5.3 -4.3,-9.6 -9.6,-9.6"/>
		</g>
	</g>
</svg>