<?xml version="1.0" standalone="no"?>
<!DOCTYPE svg PUBLIC "-//W3C//DTD SVG 20010904//EN"
 "http://www.w3.org/TR/2001/REC-SVG-20010904/DTD/svg10.dtd">
<svg version="1.0" xmlns="http://www.w3.org/2000/svg"
 width="233.000000pt" height="233.000000pt" viewBox="0 0 233.000000 233.000000"
 preserveAspectRatio="xMidYMid meet">
<metadata>
Created by potrace 1.11, written by Peter Selinger 2001-2013
</metadata>
<g transform="translate(0.000000,233.000000) scale(0.100000,-0.100000)"
fill="#000000" stroke="none">
<path d="M1138 2311 c-1 -5 -10 -11 -18 -13 -8 -2 -17 -5 -20 -9 -11 -12 -86
-54 -92 -51 -5 1 -8 -2 -8 -7 0 -6 -26 -23 -57 -39 -32 -16 -88 -48 -125 -70
-38 -23 -68 -38 -68 -34 0 4 -4 2 -8 -3 -11 -17 -65 -49 -87 -52 -10 -2 -22
-8 -25 -13 -6 -10 -78 -60 -86 -60 -3 0 -44 -23 -92 -51 -48 -29 -107 -63
-132 -77 -25 -14 -72 -42 -105 -62 -59 -36 -59 -37 -61 -86 0 -27 4 -55 9 -62
7 -8 7 -20 0 -35 -7 -14 -10 -197 -9 -521 l1 -500 110 -63 c61 -34 115 -63
122 -63 6 0 13 -4 15 -9 3 -9 136 -91 147 -91 4 0 13 -6 20 -12 6 -7 15 -13
19 -14 4 0 25 -11 46 -25 22 -13 64 -37 93 -54 30 -16 129 -74 221 -129 214
-126 217 -127 337 -52 50 31 99 60 110 65 11 5 55 30 98 55 43 25 80 46 82 46
3 0 14 8 25 17 11 10 24 18 28 18 4 0 21 9 37 19 17 11 47 30 68 43 21 13 35
28 32 33 -4 6 9 10 29 10 19 0 37 4 40 8 3 5 66 44 141 87 74 43 135 82 135
87 0 4 9 8 20 8 11 0 23 6 25 13 2 6 6 272 8 590 l3 578 -50 33 c-89 57 -367
216 -378 216 -7 0 -21 8 -32 19 -24 21 -433 261 -446 261 -5 0 -15 6 -22 13
-40 38 -92 58 -100 38z"/>
</g>
</svg>
